<svg width="32" height="32" viewBox="0 0 32 32" fill="none" xmlns="http://www.w3.org/2000/svg">
<g id="icon/coins.svg" clip-path="url(#clip0_211_3932)">
<path id="Vector" d="M16 32C20.2435 32 24.3131 30.3143 27.3137 27.3137C30.3143 24.3131 32 20.2435 32 16C32 11.7565 30.3143 7.68687 27.3137 4.68629C24.3131 1.68571 20.2435 0 16 0C11.7565 0 7.68687 1.68571 4.68629 4.68629C1.68571 7.68687 0 11.7565 0 16C0 20.2435 1.68571 24.3131 4.68629 27.3137C7.68687 30.3143 11.7565 32 16 32Z" fill="#CF9619"/>
<path id="Vector_2" d="M16 30.4C24.836 30.4 32 23.594 32 15.2C32 6.806 24.836 0 16 0C7.164 0 0 6.806 0 15.2C0 23.594 7.164 30.4 16 30.4Z" fill="#FFE063"/>
<g id="Group" filter="url(#filter0_d_211_3932)">
<path id="Vector_3" d="M16.0002 28C19.395 28 22.6507 26.6515 25.0512 24.251C27.4516 21.8505 28.8002 18.5948 28.8002 15.2C28.8002 11.8053 27.4516 8.54952 25.0512 6.14906C22.6507 3.74859 19.395 2.40002 16.0002 2.40002C12.6054 2.40002 9.34969 3.74859 6.94923 6.14906C4.54876 8.54952 3.2002 11.8053 3.2002 15.2C3.2002 18.5948 4.54876 21.8505 6.94923 24.251C9.34969 26.6515 12.6054 28 16.0002 28Z" fill="#EBBD31"/>
</g>
<path id="Vector_4" d="M10.0711 15.3596C10.1075 14.7106 9.86786 14.1229 9.5936 13.5617C9.25804 12.8752 9.2902 12.2153 9.54566 11.5253C9.80617 10.7977 10.2328 10.134 10.795 9.58191C11.7404 8.66275 12.8581 7.97799 14.193 7.63965C15.2036 7.3885 16.2595 7.34911 17.2876 7.52418C18.6092 7.73896 19.7827 8.30595 20.7888 9.17603C21.4174 9.71933 21.9417 10.3371 22.2942 11.0634C22.6729 11.8452 22.8403 12.6471 22.4447 13.5057C22.097 14.2591 21.8021 15.0547 22.0036 15.9017C22.1079 16.35 22.2625 16.7863 22.4647 17.2031C22.9338 18.1581 22.5727 19.1996 21.5697 19.6552C21.4878 19.6913 21.3978 19.7079 21.3076 19.7037C20.7949 19.6736 20.2833 19.6165 19.7706 19.6043C19.3883 19.6008 19.0063 19.6236 18.6274 19.6725C18.5522 19.6817 18.4454 19.8232 18.4369 19.9086C18.4047 20.4409 18.5206 20.9479 18.7021 21.4554C18.8149 21.7735 18.7852 22.1563 18.7415 22.501C18.7075 22.7666 18.4454 22.8035 18.1778 22.8139C17.5753 22.8376 16.9685 22.8641 16.3756 22.9588C16.0977 23.0039 15.8568 22.979 15.5899 22.9438C15.0325 22.8677 14.4708 22.8243 13.9078 22.8139C13.4382 22.8076 13.2804 22.7106 13.2574 22.2608C13.2365 21.8774 13.2908 21.4936 13.4176 21.1292C13.548 20.7452 13.5541 20.3209 13.5717 19.9098C13.5753 19.8249 13.3963 19.6604 13.2944 19.6552C12.8144 19.6303 12.3314 19.6419 11.8502 19.6552C11.5578 19.6621 11.2653 19.6852 10.9746 19.7129C9.87272 19.818 9.0214 18.4352 9.43583 17.4999C9.63547 17.0495 9.83146 16.5963 9.98194 16.1309C10.0633 15.8873 10.045 15.6165 10.0711 15.3596ZM14.6421 18.6505C15.0025 18.1217 15.3744 17.6113 15.7033 17.0807C15.869 16.8128 15.764 16.6188 15.4946 16.4542C14.9406 16.1061 14.3945 15.7516 13.8362 15.4069C13.1214 14.9624 12.404 14.5216 11.684 14.0848C11.4965 13.9693 11.3964 14.0132 11.3806 14.2505C11.3727 14.3555 11.275 14.5062 11.1773 14.5455C10.866 14.6714 10.8709 14.6846 10.9686 14.9964C11.0432 15.2349 11.1015 15.516 11.042 15.747C10.8818 16.3792 10.8509 16.9883 11.0784 17.6119C11.2604 18.113 11.5699 18.3786 12.1227 18.3555C12.7155 18.3307 13.3059 18.2585 13.8975 18.2077C14.2009 18.1817 14.511 18.1396 14.5183 18.5709C14.5158 18.5824 14.5486 18.5922 14.6421 18.6465V18.6505ZM17.4114 18.639L17.5213 18.6003C17.5364 18.5293 17.5334 18.4473 17.571 18.3896C17.6183 18.3162 17.6996 18.2089 17.7646 18.21C18.1171 18.2152 18.4684 18.2487 18.8204 18.2741C19.2324 18.3035 19.6438 18.3596 20.0552 18.3561C20.3992 18.3532 20.6656 18.1638 20.8264 17.8717C21.1456 17.2943 21.1941 16.6771 21.0509 16.0489C20.9569 15.6373 20.901 15.2372 21.1055 14.8365C21.1735 14.7043 21.151 14.5726 20.9599 14.5732C20.6741 14.5732 20.5904 14.4341 20.6019 14.1898C20.6019 14.1321 20.5625 14.0709 20.5291 13.9774C19.8295 14.3936 19.1517 14.7857 18.4866 15.1968C17.8398 15.5975 17.2124 16.0253 16.5656 16.4271C16.2883 16.6003 16.1894 16.8457 16.3338 17.1326C16.3726 17.2108 16.4178 17.2859 16.4691 17.3573C16.7816 17.7839 17.0971 18.21 17.4114 18.6361V18.639ZM14.8508 20.8359C14.8563 21.2723 15.0844 21.4184 15.5128 21.3555C15.8401 21.3102 16.1727 21.3102 16.5 21.3555C16.9181 21.4132 17.2282 21.2042 17.1997 20.8076C17.1887 20.7587 17.1657 20.713 17.1324 20.6744C17.0992 20.6357 17.0567 20.6052 17.0085 20.5853C16.8629 20.5443 16.7743 20.505 16.7755 20.3428C16.7798 19.8151 16.5091 19.3965 16.1845 18.9952C16.0504 18.8295 15.9491 18.8376 15.835 18.9918C15.5316 19.4005 15.2422 19.8122 15.2428 20.3457C15.2428 20.4213 15.1433 20.5582 15.082 20.5622C14.8635 20.5726 14.8338 20.6852 14.8508 20.833V20.8359Z" fill="#BD6D01"/>
</g>
<defs>
<filter id="filter0_d_211_3932" x="3.2002" y="2.40002" width="25.5996" height="26.4994" filterUnits="userSpaceOnUse" color-interpolation-filters="sRGB">
<feFlood flood-opacity="0" result="BackgroundImageFix"/>
<feColorMatrix in="SourceAlpha" type="matrix" values="0 0 0 0 0 0 0 0 0 0 0 0 0 0 0 0 0 0 127 0" result="hardAlpha"/>
<feOffset dy="0.899375"/>
<feComposite in2="hardAlpha" operator="out"/>
<feColorMatrix type="matrix" values="0 0 0 0 0.811765 0 0 0 0 0.588235 0 0 0 0 0.0980392 0 0 0 1 0"/>
<feBlend mode="normal" in2="BackgroundImageFix" result="effect1_dropShadow_211_3932"/>
<feBlend mode="normal" in="SourceGraphic" in2="effect1_dropShadow_211_3932" result="shape"/>
</filter>
<clipPath id="clip0_211_3932">
<rect width="32" height="32" fill="white"/>
</clipPath>
</defs>
</svg>
