<svg xmlns="http://www.w3.org/2000/svg" width="16" height="17" viewBox="0 0 16 17" fill="none">
    <mask id="path-1-inside-1_346_1448" fill="white">
        <path
            d="M11.333 14.6666H4.66634C2.23301 14.6666 0.833008 13.2666 0.833008 10.8333V6.16659C0.833008 3.73325 2.23301 2.33325 4.66634 2.33325H11.333C13.7663 2.33325 15.1663 3.73325 15.1663 6.16659V10.8333C15.1663 13.2666 13.7663 14.6666 11.333 14.6666ZM4.66634 3.33325C2.75967 3.33325 1.83301 4.25992 1.83301 6.16659V10.8333C1.83301 12.7399 2.75967 13.6666 4.66634 13.6666H11.333C13.2397 13.6666 14.1663 12.7399 14.1663 10.8333V6.16659C14.1663 4.25992 13.2397 3.33325 11.333 3.33325H4.66634Z" />
    </mask>
    <path
        d="M11.333 14.6666H4.66634C2.23301 14.6666 0.833008 13.2666 0.833008 10.8333V6.16659C0.833008 3.73325 2.23301 2.33325 4.66634 2.33325H11.333C13.7663 2.33325 15.1663 3.73325 15.1663 6.16659V10.8333C15.1663 13.2666 13.7663 14.6666 11.333 14.6666ZM4.66634 3.33325C2.75967 3.33325 1.83301 4.25992 1.83301 6.16659V10.8333C1.83301 12.7399 2.75967 13.6666 4.66634 13.6666H11.333C13.2397 13.6666 14.1663 12.7399 14.1663 10.8333V6.16659C14.1663 4.25992 13.2397 3.33325 11.333 3.33325H4.66634Z"
        fill="#FFE063" />
    <path
        d="M11.333 13.1666H4.66634V16.1666H11.333V13.1666ZM4.66634 13.1666C3.7344 13.1666 3.19972 12.9036 2.89783 12.6018C2.59595 12.2999 2.33301 11.7652 2.33301 10.8333H-0.666992C-0.666992 12.3346 -0.229938 13.7166 0.776514 14.7231C1.78297 15.7295 3.16495 16.1666 4.66634 16.1666V13.1666ZM2.33301 10.8333V6.16659H-0.666992V10.8333H2.33301ZM2.33301 6.16659C2.33301 5.23465 2.59595 4.69996 2.89783 4.39808C3.19972 4.0962 3.7344 3.83325 4.66634 3.83325V0.833252C3.16495 0.833252 1.78297 1.27031 0.776514 2.27676C-0.229938 3.28321 -0.666992 4.66519 -0.666992 6.16659H2.33301ZM4.66634 3.83325H11.333V0.833252H4.66634V3.83325ZM11.333 3.83325C12.2649 3.83325 12.7996 4.0962 13.1015 4.39808C13.4034 4.69996 13.6663 5.23465 13.6663 6.16659H16.6663C16.6663 4.66519 16.2293 3.28321 15.2228 2.27676C14.2164 1.27031 12.8344 0.833252 11.333 0.833252V3.83325ZM13.6663 6.16659V10.8333H16.6663V6.16659H13.6663ZM13.6663 10.8333C13.6663 11.7652 13.4034 12.2999 13.1015 12.6018C12.7996 12.9036 12.2649 13.1666 11.333 13.1666V16.1666C12.8344 16.1666 14.2164 15.7295 15.2228 14.7231C16.2293 13.7166 16.6663 12.3346 16.6663 10.8333H13.6663ZM4.66634 1.83325C3.49254 1.83325 2.32985 2.11842 1.47401 2.97426C0.618177 3.8301 0.333008 4.99278 0.333008 6.16659H3.33301C3.33301 5.43372 3.51117 5.17974 3.59533 5.09558C3.6795 5.01142 3.93348 4.83325 4.66634 4.83325V1.83325ZM0.333008 6.16659V10.8333H3.33301V6.16659H0.333008ZM0.333008 10.8333C0.333008 12.0071 0.618177 13.1697 1.47401 14.0256C2.32985 14.8814 3.49254 15.1666 4.66634 15.1666V12.1666C3.93348 12.1666 3.6795 11.9884 3.59533 11.9043C3.51117 11.8201 3.33301 11.5661 3.33301 10.8333H0.333008ZM4.66634 15.1666H11.333V12.1666H4.66634V15.1666ZM11.333 15.1666C12.5068 15.1666 13.6695 14.8814 14.5253 14.0256C15.3812 13.1697 15.6663 12.0071 15.6663 10.8333H12.6663C12.6663 11.5661 12.4882 11.8201 12.404 11.9043C12.3199 11.9884 12.0659 12.1666 11.333 12.1666V15.1666ZM15.6663 10.8333V6.16659H12.6663V10.8333H15.6663ZM15.6663 6.16659C15.6663 4.99278 15.3812 3.8301 14.5253 2.97426C13.6695 2.11842 12.5068 1.83325 11.333 1.83325V4.83325C12.0659 4.83325 12.3199 5.01142 12.404 5.09558C12.4882 5.17974 12.6663 5.43372 12.6663 6.16659H15.6663ZM11.333 1.83325H4.66634V4.83325H11.333V1.83325Z"
        fill="#FFE063" mask="url(#path-1-inside-1_346_1448)" />
    <path d="M11.4931 6.68873C11.4925 6.68922 11.4919 6.6897 11.4913 6.69018L11.4931 6.68873Z" fill="#FFE063"
        stroke="#FFE063" stroke-width="1.5" />
</svg>