<svg width="17" height="17" viewBox="0 0 17 17" fill="none" xmlns="http://www.w3.org/2000/svg">
<g clip-path="url(#clip0_7724_7925)">
<path d="M8.5 16.5C10.6217 16.5 12.6566 15.6571 14.1569 14.1569C15.6571 12.6566 16.5 10.6217 16.5 8.5C16.5 6.37827 15.6571 4.34344 14.1569 2.84315C12.6566 1.34285 10.6217 0.5 8.5 0.5C6.37827 0.5 4.34344 1.34285 2.84315 2.84315C1.34285 4.34344 0.5 6.37827 0.5 8.5C0.5 10.6217 1.34285 12.6566 2.84315 14.1569C4.34344 15.6571 6.37827 16.5 8.5 16.5Z" fill="#CF9619"/>
<path d="M8.5 15.7C12.918 15.7 16.5 12.297 16.5 8.1C16.5 3.903 12.918 0.5 8.5 0.5C4.082 0.5 0.5 3.903 0.5 8.1C0.5 12.297 4.082 15.7 8.5 15.7Z" fill="#FFE063"/>
<g filter="url(#filter0_d_7724_7925)">
<path d="M8.49998 14.5C10.1974 14.5 11.8252 13.8257 13.0255 12.6254C14.2257 11.4252 14.9 9.79734 14.9 8.09995C14.9 6.40257 14.2257 4.7747 13.0255 3.57447C11.8252 2.37423 10.1974 1.69995 8.49998 1.69995C6.80259 1.69995 5.17472 2.37423 3.97449 3.57447C2.77426 4.7747 2.09998 6.40257 2.09998 8.09995C2.09998 9.79734 2.77426 11.4252 3.97449 12.6254C5.17472 13.8257 6.80259 14.5 8.49998 14.5Z" fill="#EBBD31"/>
</g>
<path d="M5.89565 12.3914C5.87608 12.2744 5.95542 12.2484 6.03012 12.21C6.29025 12.0549 6.57862 11.9388 6.81499 11.749C8.04914 10.9855 8.94562 9.80533 9.45795 8.45538C9.31692 8.56112 9.23366 8.62422 9.11278 8.68279C8.97308 8.77483 8.83371 8.85193 8.68564 8.92887C7.99524 9.28766 7.11504 9.87685 6.26793 9.01275C5.42081 8.14865 6.42666 6.32826 7.0149 5.62497C8.04248 4.39652 9.45795 3.88742 10.5417 4.44364C11.8689 5.12478 12.1922 7.48391 11.0456 9.3081C9.89892 11.1323 7.69253 12.0704 5.89565 12.3914ZM10.0205 5.90309C9.99992 5.52525 9.94175 5.30277 9.76246 5.07432C9.32692 4.52149 8.54176 5.09688 8.23486 5.52525C7.79394 6.1477 7.64041 7.07572 7.69253 7.62297C7.74465 8.17023 7.9705 8.82164 8.83047 8.56112C9.02919 8.48941 9.2648 8.37431 9.3951 8.25709C9.97609 7.73445 10.0411 6.28092 10.0205 5.90309Z" fill="#BD6D01"/>
</g>
<defs>
<filter id="filter0_d_7724_7925" x="2.09998" y="1.69995" width="12.8" height="13.6994" filterUnits="userSpaceOnUse" color-interpolation-filters="sRGB">
<feFlood flood-opacity="0" result="BackgroundImageFix"/>
<feColorMatrix in="SourceAlpha" type="matrix" values="0 0 0 0 0 0 0 0 0 0 0 0 0 0 0 0 0 0 127 0" result="hardAlpha"/>
<feOffset dy="0.899375"/>
<feComposite in2="hardAlpha" operator="out"/>
<feColorMatrix type="matrix" values="0 0 0 0 0.811765 0 0 0 0 0.588235 0 0 0 0 0.0980392 0 0 0 1 0"/>
<feBlend mode="normal" in2="BackgroundImageFix" result="effect1_dropShadow_7724_7925"/>
<feBlend mode="normal" in="SourceGraphic" in2="effect1_dropShadow_7724_7925" result="shape"/>
</filter>
<clipPath id="clip0_7724_7925">
<rect width="16" height="16" fill="white" transform="translate(0.5 0.5)"/>
</clipPath>
</defs>
</svg>
