<svg width="23" height="21" viewBox="0 0 23 21" fill="none" xmlns="http://www.w3.org/2000/svg">
<g id="enter">
<path id="Vector" d="M19.6143 3H14.7696C13.6397 3 12.6341 3.55865 12.0017 4.41785C11.3694 3.55865 10.3638 3 9.23383 3H4.38568C3.622 3 3 3.63644 3 4.41785V17.5214C3 18.3028 3.622 18.9393 4.38568 18.9393H9.47572C10.1565 19.6181 11.0584 20 12.0017 20C12.9451 20 13.847 19.6181 14.5277 18.9393H19.6143C20.378 18.9393 21 18.3028 21 17.5214V4.41785C21 3.63644 20.378 3 19.6143 3ZM19.6143 17.5214H14.2271C14.0267 17.5214 13.8332 17.6098 13.7019 17.7689C13.2699 18.2852 12.6479 18.5822 12.0017 18.5822C11.3555 18.5822 10.7335 18.2852 10.3016 17.7689C10.1703 17.6098 9.97677 17.5214 9.77635 17.5214H4.38568V4.41785H9.23037C10.3742 4.41785 11.3072 5.3725 11.3072 6.54285V12.5643C11.3072 12.9567 11.6182 13.2714 11.9983 13.2714C12.3818 13.2714 12.6894 12.9532 12.6894 12.5643V6.54285C12.6894 5.3725 13.6224 4.41785 14.7662 4.41785H19.6143V17.5214Z" fill="#2F334E"/>
</g>
</svg>
