<svg width="16" height="16" viewBox="0 0 16 16" fill="none" xmlns="http://www.w3.org/2000/svg">
<path d="M2.66667 7.33333L12 7.33333V8.66667L2.66667 8.66667V7.33333Z" fill="#2F334E"/>
<path d="M10.6667 10.6667L2.66667 10.6667V12H10.6667V10.6667Z" fill="#2F334E"/>
<path d="M0 1.33333C0 0.596953 0.596954 0 1.33333 0H14.6667C15.403 0 16 0.596954 16 1.33333V14.6667C16 15.403 15.403 16 14.6667 16H1.33333C0.596953 16 0 15.403 0 14.6667V1.33333ZM1.33333 1.33333L1.33333 4H14.6667V1.33333H1.33333ZM1.33333 5.33333L1.33333 14.6667H14.6667V5.33333H1.33333Z" fill="#2F334E"/>
</svg>
