<svg width="23" height="18" viewBox="0 0 23 18" fill="none" xmlns="http://www.w3.org/2000/svg">
<g id="users" clip-path="url(#clip0_318_45406)">
<path id="Vector" d="M22.1613 1.58465C21.9789 1.34695 21.7331 1.17007 21.4544 1.07606C21.1757 0.982039 20.8765 0.97503 20.594 1.0559L4.62154 5.49345C4.34694 5.56814 4.09843 5.72205 3.90491 5.93728C3.71139 6.15251 3.5808 6.42022 3.52833 6.7093C3.47347 6.99775 3.49862 7.2964 3.60087 7.57065C3.70311 7.8449 3.87826 8.08352 4.10602 8.25887L7.64558 11.0046V16.4585C7.65015 16.7809 7.75121 17.094 7.9348 17.3544C8.1184 17.6148 8.37548 17.8097 8.67057 17.9123C8.8355 17.9705 9.00475 18 9.17141 18C9.61699 18 10.0427 17.796 10.3337 17.4247L12.4899 14.7631L14.0425 15.9673C14.2185 16.1041 14.4212 16.1993 14.6365 16.2463C14.8517 16.2933 15.0743 16.2909 15.2886 16.2393C15.5026 16.1882 15.7034 16.0894 15.8768 15.9497C16.0503 15.81 16.1922 15.6329 16.2928 15.4305L22.3306 3.28362C22.466 3.01437 22.5222 2.70984 22.4921 2.40781C22.462 2.10579 22.347 1.81956 22.1613 1.58465ZM21.1769 2.66988L15.1392 14.8168C15.1245 14.8455 15.1041 14.8706 15.0792 14.8904C15.0544 14.9102 15.0257 14.9243 14.9951 14.9316C14.9646 14.9389 14.9328 14.9393 14.9021 14.9327C14.8714 14.9262 14.8424 14.9129 14.8171 14.8937L11.0288 11.9547C10.9608 11.9019 10.8834 11.8634 10.801 11.8415C10.7186 11.8197 10.6329 11.8148 10.5487 11.8273C10.3786 11.8524 10.2252 11.9466 10.1221 12.0889C10.0191 12.2313 9.97484 12.4103 9.99913 12.5864C10.0234 12.7626 10.1143 12.9216 10.2517 13.0283L11.4494 13.9579L9.33289 16.5712C9.30575 16.6095 9.26713 16.6374 9.22307 16.6505C9.179 16.6636 9.13199 16.6612 9.08938 16.6437C9.02202 16.6204 8.94172 16.5641 8.93913 16.4442V11.0538L17.5976 5.82269C17.746 5.733 17.854 5.5859 17.8977 5.41375C17.9414 5.24161 17.9173 5.05852 17.8308 4.90476C17.7442 4.751 17.6022 4.63917 17.4361 4.59387C17.2699 4.54857 17.0932 4.57351 16.9448 4.6632L8.33553 9.86479L4.88146 7.18527C4.84815 7.16079 4.82254 7.1267 4.8078 7.08724C4.79306 7.04779 4.78984 7.00472 4.79856 6.96339C4.80526 6.92174 4.82365 6.88306 4.85145 6.85219C4.87925 6.82132 4.91522 6.79963 4.95486 6.78982L20.9291 2.35138C21.0474 2.31828 21.1199 2.38448 21.1527 2.42653C21.1855 2.46858 21.233 2.55715 21.1769 2.66988Z" fill="#2F334E"/>
</g>
<defs>
<clipPath id="clip0_318_45406">
<rect width="22" height="17" fill="white" transform="translate(0.995117 0.799805)"/>
</clipPath>
</defs>
</svg>
