<svg width="200" height="200" viewBox="0 0 200 200" fill="none" xmlns="http://www.w3.org/2000/svg">
<g id="vuesax/bold/flag">
<g id="flag">
<path id="Vector" d="M150.167 102.75L140 92.5834C137.584 90.5001 136.167 87.4167 136.084 84.0001C135.917 80.2501 137.417 76.5001 140.167 73.7501L150.167 63.7501C158.834 55.0834 162.084 46.7501 159.334 40.1667C156.667 33.6667 148.417 30.0834 136.25 30.0834H49.167V22.9167C49.167 19.5001 46.3337 16.6667 42.917 16.6667C39.5003 16.6667 36.667 19.5001 36.667 22.9167V177.083C36.667 180.5 39.5003 183.333 42.917 183.333C46.3337 183.333 49.167 180.5 49.167 177.083V136.417H136.25C148.25 136.417 156.334 132.75 159.084 126.167C161.834 119.583 158.667 111.333 150.167 102.75Z" fill="#EB4C4B"/>
</g>
</g>
</svg>
